<svg fill="none" viewBox="0 0 100 125" xmlns="http://www.w3.org/2000/svg">
<path d="M87.123,28.787h-15.91l5.303-5.303C69.433,16.401,60.016,12.5,50,12.5c-10.017,0-19.434,3.901-26.517,10.984   C16.4,30.566,12.5,39.983,12.5,50c0,2.071-1.679,3.75-3.75,3.75S5,52.071,5,50c0-12.02,4.681-23.321,13.181-31.82   C26.68,9.681,37.98,5,50,5s23.32,4.681,31.819,13.18l0,0l5.304-5.304V28.787z" fill="#222222"/>
<path d="M49.979,87.5c2.07,0,3.75,1.68,3.75,3.75c0,2.07-1.68,3.75-3.75,3.75c-2.08,0-3.75-1.68-3.75-3.75   C46.229,89.18,47.91,87.5,49.979,87.5z" fill="#222222"/>
<path d="M65.765,84.383c2.07,0,3.75,1.68,3.75,3.75c0,2.07-1.68,3.75-3.75,3.75c-2.08,0-3.75-1.68-3.75-3.75   C62.015,86.063,63.696,84.383,65.765,84.383z" fill="#222222"/>
<path d="M79.17,75.42c2.07,0,3.75,1.68,3.75,3.75c0,2.07-1.68,3.75-3.75,3.75c-2.08,0-3.75-1.68-3.75-3.75   C75.42,77.1,77.101,75.42,79.17,75.42z" fill="#222222"/>
<path d="M34.195,84.363c2.07,0,3.75,1.68,3.75,3.75c0,2.07-1.68,3.75-3.75,3.75c-2.08,0-3.75-1.68-3.75-3.75   C30.445,86.043,32.125,84.363,34.195,84.363z" fill="#222222"/>
<path d="M20.826,75.42c2.07,0,3.75,1.68,3.75,3.75c0,2.07-1.68,3.75-3.75,3.75c-2.08,0-3.75-1.68-3.75-3.75   C17.076,77.1,18.757,75.42,20.826,75.42z" fill="#222222"/>
<path d="M11.88,62.04c2.07,0,3.75,1.68,3.75,3.75c0,2.07-1.68,3.75-3.75,3.75c-2.08,0-3.75-1.68-3.75-3.75   C8.13,63.72,9.811,62.04,11.88,62.04z" fill="#222222"/>
<path d="M72.5,59v0.839c0,3.304-1.313,6.474-3.649,8.81v0c-2.466,2.466-5.81,3.851-9.296,3.851h0c-2.328,0-4.614-0.618-6.624-1.791   C43.143,65,35,56.857,29.291,47.07c-1.173-2.011-1.791-4.297-1.791-6.624c0-3.487,1.385-6.831,3.851-9.296v0   c2.337-2.337,5.506-3.649,8.81-3.649H41l4.5,12L41,44c3.961,5.941,9.059,11.039,15,15l4.5-4.5L72.5,59z" fill="#222222"/>
</svg>