<svg width="25" height="25" viewBox="0 0 25 25" fill="none" xmlns="http://www.w3.org/2000/svg">
<path fill-rule="evenodd" clip-rule="evenodd" d="M3.13543 9.48301C3.125 9.99145 3.125 10.5631 3.125 11.2082V13.7916C3.125 16.62 3.125 18.0342 4.00368 18.9129C4.88236 19.7916 6.29657 19.7916 9.125 19.7916H15.875C18.7034 19.7916 20.1176 19.7916 20.9963 18.9129C21.875 18.0342 21.875 16.62 21.875 13.7916V11.2083C21.875 10.5631 21.875 9.99145 21.8646 9.48301L13.4713 14.1459C12.8672 14.4815 12.1328 14.4815 11.5287 14.1459L3.13543 9.48301ZM3.33754 7.35583C3.43087 7.37616 3.52284 7.41032 3.61064 7.45909L12.5 12.3976L21.3894 7.45909C21.4772 7.41032 21.5691 7.37617 21.6625 7.35584C21.5339 6.82541 21.3275 6.41813 20.9963 6.08693C20.1176 5.20825 18.7034 5.20825 15.875 5.20825H9.125C6.29657 5.20825 4.88236 5.20825 4.00368 6.08693C3.67248 6.41813 3.46612 6.82541 3.33754 7.35583Z" fill="#222222"/>
</svg>
